<svg width="62" height="72" viewBox="0 0 62 72" fill="none" xmlns="http://www.w3.org/2000/svg">
<path fill-rule="evenodd" clip-rule="evenodd" d="M59.4097 12.6599C58.7045 11.9575 57.8502 11.4229 56.9102 11.0957C55.9702 10.7685 54.9686 10.6572 53.9797 10.7699C52.5035 10.9508 51.1565 11.7014 50.2261 12.8616C49.2957 14.0218 48.8556 15.4997 48.9997 16.9799C49.0789 17.5674 49.2617 18.1363 49.5397 18.6599L44.3797 20.6999C43.914 20.7717 43.4531 20.8719 42.9997 20.9999C41.2897 18.5099 38.5897 13.8599 36.6097 11.0699C36.3697 10.7699 36.1597 10.5299 35.9797 10.2599C36.3485 10.0055 36.6903 9.71393 36.9997 9.38991C37.6514 8.91683 38.16 8.27326 38.4697 7.52991C38.8298 6.56174 38.8819 5.50592 38.6187 4.50703C38.3556 3.50813 37.7901 2.61499 36.9997 1.94991C36.3165 1.25745 35.4894 0.723793 34.5769 0.386794C33.6644 0.0497958 32.6889 -0.082288 31.7197 -8.80845e-05C30.2327 0.166306 28.8707 0.910764 27.9277 2.0726C26.9848 3.23443 26.5365 4.72045 26.6797 6.20991C26.8001 7.10444 27.1629 7.94901 27.7286 8.65227C28.2944 9.35553 29.0417 9.89071 29.8897 10.1999C27.3397 13.1999 23.0797 19.1999 21.5797 21.2399L20.1097 20.9999C18.1478 20.2212 16.1448 19.5502 14.1097 18.9899C14.4457 18.0429 14.491 17.0172 14.2398 16.0443C13.9885 15.0714 13.4522 14.1958 12.6997 13.5299C11.9945 12.8275 11.1402 12.2929 10.2002 11.9657C9.26022 11.6385 8.25861 11.5272 7.2697 11.6399C5.76796 11.8275 4.40142 12.6016 3.46839 13.7931C2.53537 14.9847 2.11163 16.497 2.2897 17.9999C2.39073 18.6797 2.62814 19.3321 2.98765 19.9179C3.34717 20.5037 3.82138 21.0108 4.38179 21.4087C4.9422 21.8065 5.57726 22.0871 6.24882 22.2333C6.92037 22.3796 7.61456 22.3887 8.2897 22.2599V24.3299L8.8297 27.3299L10.1197 31.8299L11.3197 35.8799C11.7097 37.1699 13.1797 36.7499 13.0597 35.3099L12.0097 31.3499L10.9297 26.8499L10.7797 23.9999C10.7797 23.6999 10.5997 22.7099 10.5697 22.0199C11.0898 21.8124 11.5916 21.5615 12.0697 21.2699C12.6236 21.3047 13.1747 21.3748 13.7197 21.4799C15.6277 22.1199 17.5004 22.861 19.3297 23.6999C20.3091 23.9857 21.3137 24.1766 22.3297 24.2699C22.597 24.2877 22.8644 24.2363 23.1061 24.1207C23.3479 24.0051 23.5557 23.8292 23.7097 23.6099C24.1597 22.9499 30.2497 14.6099 33.0097 11.6099C35.2297 14.2199 39.2497 21.0299 41.1397 23.6099C41.3098 23.8343 41.5335 24.0123 41.7904 24.1277C42.0473 24.243 42.329 24.2919 42.6097 24.2699C43.4992 24.1213 44.373 23.8903 45.2197 23.5799C45.9697 23.3099 46.7197 23.0399 47.4397 22.7099C48.1597 22.3799 49.5697 21.7499 50.6197 21.2699C50.8297 21.2699 51.5797 21.0899 51.7897 20.8199C52.1122 21.1989 52.3019 21.673 52.3297 22.1699C52.4697 23.165 52.4697 24.1748 52.3297 25.1699C51.9464 27.7437 51.3545 30.2821 50.5597 32.7599C50.0197 34.5599 49.2097 36.0899 48.5197 37.8299C47.8297 39.5699 49.2097 40.8299 49.8097 39.5099C50.6797 37.5899 51.9397 35.4299 52.6297 33.5099C53.5419 30.9387 54.254 28.3009 54.7597 25.6199C55.0049 24.2004 55.0049 22.7494 54.7597 21.3299C56.2597 21.3299 55.9297 21.7799 56.7097 21.5099C57.6858 21.2317 58.6015 20.7739 59.4097 20.1599C60.0531 19.6783 60.5598 19.0372 60.8797 18.2999C61.2446 17.3228 61.2992 16.2569 61.0361 15.2476C60.7731 14.2382 60.2051 13.3346 59.4097 12.6599ZM11.8297 18.2999C11.5897 19.2599 5.1697 22.4699 4.9897 17.6099C5.04294 16.8512 5.38236 16.141 5.9393 15.6231C6.49624 15.1051 7.22913 14.818 7.9897 14.8199C8.52747 14.7404 9.07624 14.7827 9.59549 14.9436C10.1147 15.1046 10.5912 15.3801 10.9897 15.7499C11.3648 16.0454 11.6444 16.4449 11.7938 16.8984C11.9432 17.3519 11.9557 17.8394 11.8297 18.2999ZM29.3797 5.99991C29.4402 5.24657 29.7827 4.5438 30.3389 4.0321C30.8951 3.52041 31.6239 3.23749 32.3797 3.23991C32.8868 3.17751 33.4015 3.22565 33.8883 3.38101C34.3751 3.53636 34.8225 3.79526 35.1997 4.13991C35.6259 4.39923 35.9631 4.782 36.1667 5.23742C36.3703 5.69284 36.4306 6.19941 36.3397 6.68991C36.1932 7.18461 35.8874 7.61703 35.4697 7.91991C35.4697 7.91991 29.4997 9.74991 29.3797 5.99991ZM58.5097 17.3999C58.3519 17.889 58.0483 18.3182 57.6397 18.6299C57.1555 19.0275 56.5794 19.2974 55.9641 19.4151C55.3487 19.5327 54.7137 19.4943 54.117 19.3034C53.5203 19.1124 52.9809 18.775 52.5482 18.322C52.1154 17.869 51.8031 17.3147 51.6397 16.7099C51.7002 15.9566 52.0427 15.2538 52.5989 14.7421C53.1551 14.2304 53.8839 13.9475 54.6397 13.9499C55.1468 13.8875 55.6615 13.9356 56.1483 14.091C56.6351 14.2464 57.0825 14.5053 57.4597 14.8499C57.8689 15.1291 58.1868 15.5228 58.3736 15.9816C58.5603 16.4405 58.6077 16.9443 58.5097 17.4299V17.3999Z" fill="#89D628"/>
<path fill-rule="evenodd" clip-rule="evenodd" d="M47.6198 40.4998C46.4735 39.5791 45.1735 38.8682 43.7798 38.3998C39.3533 37.0486 34.7576 36.3315 30.1298 36.2698C24.8208 35.9445 19.4964 36.5745 14.4098 38.1298L14.0498 38.3098C13.5654 38.4997 13.1027 38.7411 12.6698 39.0298C11.757 39.5347 11.0232 40.3103 10.5698 41.2498C9.98124 42.678 9.48031 44.1407 9.06984 45.6298C8.49984 47.7598 8.13984 49.6198 7.86984 50.7898C7.76696 50.9735 7.67675 51.1639 7.59984 51.3598L6.99984 51.5998C5.6712 51.9004 4.35938 52.2709 3.06984 52.7098C1.83984 53.1898 1.20984 53.9398 1.11984 54.5398C0.30984 58.7698 3.00984 63.5398 8.64984 67.1398C14.9258 70.7222 22.1051 72.4102 29.3198 71.9998C29.5192 71.9623 29.6991 71.8563 29.8286 71.7002C29.9581 71.5441 30.029 71.3477 30.029 71.1448C30.029 70.942 29.9581 70.7455 29.8286 70.5894C29.6991 70.4333 29.5192 70.3273 29.3198 70.2898C22.4452 70.5413 15.6468 68.7791 9.75984 65.2198C5.46984 62.3698 3.06984 58.7398 3.60984 55.4398C3.12984 54.6298 6.12984 54.6898 7.47984 54.3898C8.32964 54.2438 9.138 53.9164 9.84984 53.4298C10.2819 52.9629 10.5911 52.3959 10.7498 51.7798C11.4969 48.5941 12.5002 45.474 13.7498 42.4498C14.1098 41.5198 15.5798 41.0398 17.4698 40.5598C21.672 39.6255 25.9796 39.2523 30.2798 39.4498C31.8398 39.4498 33.2798 39.5998 34.8398 39.7498C33.7383 41.5894 32.2918 43.1989 30.5798 44.4898C29.7607 45.0924 28.8984 45.6338 27.9998 46.1098C27.0871 46.571 26.1451 46.9719 25.1798 47.3098C23.4004 47.9635 21.5251 48.3182 19.6298 48.3598C19.7389 47.2791 19.9193 46.2068 20.1698 45.1498C20.2167 44.9276 20.1778 44.6959 20.0609 44.5012C19.9441 44.3064 19.758 44.1631 19.5398 44.0998C19.3291 44.0439 19.1048 44.0721 18.9145 44.1784C18.7241 44.2848 18.5826 44.461 18.5198 44.6698C17.4827 47.6662 17.0246 50.8324 17.1698 53.9998C17.3308 56.2338 18.0308 58.3955 19.2098 60.2998C20.5789 62.2348 22.5359 63.6762 24.7898 64.4098C27.9381 65.4537 31.2839 65.7616 34.5698 65.3098C35.733 65.1867 36.8737 64.904 37.9598 64.4698C38.8042 64.1562 39.5714 63.6651 40.2098 63.0298C41.789 61.2348 42.8289 59.0301 43.2098 56.6698C43.8076 53.4095 43.7361 50.0617 42.9998 46.8298C42.9359 46.5817 42.7782 46.3681 42.5601 46.2339C42.3419 46.0996 42.0801 46.0551 41.8298 46.1098C41.5841 46.1671 41.3708 46.3188 41.236 46.5322C41.1013 46.7455 41.0559 47.0033 41.1098 47.2498C41.5603 49.7396 41.5603 52.29 41.1098 54.7798C40.8281 57.1433 39.7734 59.3475 38.1098 61.0498C37.7342 61.3764 37.295 61.6216 36.8198 61.7698C35.9405 62.0352 35.0354 62.2062 34.1198 62.2798C31.7742 62.5319 29.4031 62.4002 27.0998 61.8898C24.9447 61.5519 22.9675 60.4946 21.4898 58.8898C20.1791 57.0187 19.4297 54.8122 19.3298 52.5298V50.5798C21.478 51.0154 23.6917 51.0154 25.8398 50.5798C27.0467 50.306 28.2084 49.8616 29.2898 49.2598C30.3828 48.6907 31.3922 47.974 32.2898 47.1298C34.2952 45.2374 35.8178 42.8919 36.7298 40.2898C38.7661 40.5448 40.7746 40.9867 42.7298 41.6098C44.5898 42.2398 45.9998 42.8698 46.4198 43.8898C47.8898 47.4298 48.6698 50.6998 49.2098 52.2598C49.3519 52.8167 49.6421 53.3247 50.0498 53.7298C50.5136 54.0444 51.0328 54.2684 51.5798 54.3898C52.5398 54.6898 54.3098 55.8298 55.0898 55.7398C54.9489 57.8401 54.3263 59.8797 53.2702 61.7005C52.2141 63.5214 50.7529 65.0746 48.9998 66.2398C44.847 68.7286 40.1013 70.0549 35.2598 70.0798C35.1325 70.0796 35.0064 70.1055 34.8895 70.1559C34.7726 70.2063 34.6673 70.2803 34.5801 70.3731C34.4929 70.4659 34.4257 70.5756 34.3826 70.6955C34.3396 70.8153 34.3216 70.9427 34.3298 71.0698C34.3453 71.3271 34.4606 71.5682 34.651 71.7419C34.8415 71.9156 35.0922 72.0081 35.3498 71.9998C40.6087 72.0979 45.7948 70.7599 50.3498 68.1298C52.642 66.683 54.5384 64.6889 55.8686 62.3272C57.1987 59.9654 57.9208 57.31 57.9698 54.5998C57.9743 54.2563 57.877 53.9191 57.6901 53.6309C57.5033 53.3426 57.2352 53.116 56.9198 52.9798C55.6697 52.4305 54.375 51.9889 53.0498 51.6598C52.6898 51.6598 52.3298 51.3298 52.1198 51.2698L51.9998 50.9998C51.6698 49.9798 51.2798 48.3598 50.7098 46.4398C50.3198 45.2398 49.9298 43.9198 49.3898 42.5698C48.8472 41.8407 48.2559 41.1491 47.6198 40.4998Z" fill="#89D628"/>
</svg>
