<svg width="344" height="558" viewBox="0 0 344 558" fill="none" xmlns="http://www.w3.org/2000/svg">
<g clip-path="url(#clip0_125_248)">
<path d="M-107.122 142.275C-147.148 -2.76694 1.12346 -17.5305 108.127 26.2647C170.558 48.7879 211.558 -21.2577 288.898 6.69661C366.238 34.651 273.523 122.707 391.863 167.9C510.203 213.093 452.431 415.296 349 417.625C245.569 419.955 273.989 453.966 170.558 531.772C67.1268 609.579 -107.122 501.488 -63.7928 387.342C-20.4636 273.195 -63.7933 299.285 -107.122 142.275Z" stroke="white" stroke-opacity="0.15" stroke-width="1.5"/>
<path d="M115.486 255.153C110.868 241.339 132.499 219.053 149.893 228.564C165.821 237.273 182.04 231.399 192.756 235.282C220.967 245.504 210.59 250.915 223.201 263.055C238.547 277.828 245.869 316.513 210.59 316.513C181.574 316.513 190.256 330.605 168.529 336.85C146.802 343.094 122.162 332.465 122.162 304.481C122.162 293.972 123.178 278.162 115.486 255.153Z" stroke="white" stroke-opacity="0.15" stroke-width="1.5"/>
<path d="M-86.8879 151.833C-123.695 18.7203 13.0639 3.2729 111.921 43.9513C170.124 65.2188 208.871 1.00688 280.155 26.7729C353.029 53.1152 267.799 133.658 376.528 175.846C485.505 218.274 433.65 405.611 336.414 407.729C239.748 409.847 266.374 442.047 170.371 513.348C74.3671 584.649 -86.2808 485.419 -46.8906 379.105C-7.50044 274.379 -46.7987 296.661 -86.8879 151.833Z" stroke="white" stroke-opacity="0.15" stroke-width="1.5"/>
<path d="M-66.6536 161.39C-100.242 40.2072 25.0044 24.0759 115.715 61.6376C169.691 81.6493 206.185 23.2712 271.412 46.8489C339.82 71.5792 262.075 144.609 361.192 183.792C460.806 223.454 414.869 395.927 323.829 397.833C233.928 399.738 258.759 430.128 170.183 494.923C81.6075 559.718 -65.4396 469.348 -29.9884 370.867C5.46272 275.564 -29.8041 294.036 -66.6536 161.39Z" stroke="white" stroke-opacity="0.15" stroke-width="1.5"/>
<path d="M-46.419 170.948C-76.7885 61.6949 36.945 44.8797 119.509 79.3247C169.258 98.0805 203.499 45.5362 262.669 66.9256C326.611 90.0439 256.351 155.56 345.856 191.739C436.107 228.636 396.088 386.242 311.243 387.937C228.108 389.631 251.145 418.21 169.996 476.499C88.8482 534.788 -44.5982 453.279 -13.0861 362.631C18.4261 276.749 -12.8093 291.412 -46.419 170.948Z" stroke="white" stroke-opacity="0.15" stroke-width="1.5"/>
<path d="M-26.1844 180.506C-53.3349 83.183 48.8858 65.684 123.304 97.0122C168.825 114.512 200.813 67.8018 253.927 87.0028C313.402 108.509 250.628 166.512 330.521 199.686C411.409 233.817 377.307 376.559 298.658 378.041C222.287 379.524 243.53 406.292 169.809 458.076C96.0889 509.859 -23.7567 437.209 3.81642 354.395C31.3895 277.934 4.18562 288.788 -26.1844 180.506Z" stroke="white" stroke-opacity="0.15" stroke-width="1.5"/>
<path d="M-5.94939 190.55C-29.881 105.156 60.8269 86.9735 127.098 115.185C168.392 131.429 198.128 90.5525 245.184 107.565C300.193 127.459 244.904 177.95 315.186 208.119C386.71 239.484 358.527 367.36 286.074 368.631C216.468 369.902 235.916 394.859 169.623 440.137C103.33 485.415 -2.91486 421.626 20.7193 346.644C44.3534 279.605 21.1809 286.65 -5.94939 190.55Z" stroke="white" stroke-opacity="0.15" stroke-width="1.5"/>
<path d="M14.2858 201.165C-6.42695 127.701 72.7682 108.835 130.893 133.929C167.959 148.918 195.443 113.875 236.442 128.699C286.985 146.981 239.181 189.958 299.851 217.123C362.012 245.723 339.746 358.734 273.489 359.793C210.648 360.851 228.302 383.998 169.437 422.77C110.571 461.543 17.9272 406.613 37.6223 339.464C57.3174 281.847 38.1763 285.083 14.2858 201.165Z" stroke="white" stroke-opacity="0.15" stroke-width="1.5"/>
<path d="M34.5216 211.813C17.0278 150.279 84.7102 130.728 134.689 152.706C167.527 166.439 192.758 137.23 227.701 149.866C273.777 166.536 233.459 202 284.517 226.159C337.315 251.994 320.967 350.14 260.905 350.987C204.829 351.834 220.688 373.169 169.251 405.436C117.813 437.703 38.7699 391.634 54.526 332.318C70.282 284.122 55.1724 283.549 34.5216 211.813Z" stroke="white" stroke-opacity="0.15" stroke-width="1.5"/>
<path d="M54.7581 222.506C40.4831 172.902 96.6527 152.668 138.485 171.529C167.096 184.006 190.074 160.63 218.96 171.078C260.57 186.136 227.737 214.087 269.183 235.241C312.618 258.311 302.188 341.591 248.321 342.226C199.011 342.862 213.076 362.387 169.066 388.148C125.056 413.909 59.6132 376.7 71.4302 325.217C83.2473 286.443 72.1691 282.06 54.7581 222.506Z" stroke="white" stroke-opacity="0.15" stroke-width="1.5"/>
<path d="M74.996 233.267C63.94 195.593 108.597 174.675 142.283 190.419C166.666 201.641 187.391 184.099 210.221 192.358C247.364 205.805 222.017 226.242 253.851 244.392C287.923 264.696 283.41 333.11 235.74 333.534C193.194 333.958 205.465 351.672 168.882 370.927C132.3 390.183 80.458 361.834 88.336 318.184C96.2141 288.832 89.1673 280.64 74.996 233.267Z" stroke="white" stroke-opacity="0.15" stroke-width="1.5"/>
<path d="M95.237 244.131C87.3999 218.386 120.544 196.784 146.084 209.412C166.24 219.377 184.712 207.669 201.484 213.741C234.161 225.575 216.299 238.499 238.522 253.644C263.231 271.182 264.636 324.732 223.161 324.944C187.38 325.155 197.856 341.059 168.702 353.809C139.547 366.559 101.306 347.069 105.245 311.253C109.184 291.322 106.169 279.321 95.237 244.131Z" stroke="white" stroke-opacity="0.15" stroke-width="1.5"/>
</g>
<defs>
<clipPath id="clip0_125_248">
<rect width="344" height="558" fill="white"/>
</clipPath>
</defs>
</svg>
